<?xml version="1.0" encoding="UTF-8" standalone="no"?>
<svg width="159px" height="61px" viewBox="0 0 159 61" version="1.1" xmlns="http://www.w3.org/2000/svg" xmlns:xlink="http://www.w3.org/1999/xlink">
    <!-- Generator: Sketch 3.8.2 (29753) - http://www.bohemiancoding.com/sketch -->
    <title>quote_logo_engad</title>
    <desc>Created with Sketch.</desc>
    <defs></defs>
    <g id="Page-1" stroke="none" stroke-width="1" fill="none" fill-rule="evenodd">
        <g id="Artboard-1" transform="translate(-119.000000, -62.000000)">
            <g id="quote_logo_engad" transform="translate(119.000000, 62.000000)">
                <rect id="Rectangle-1" fill-opacity="0" fill="#D8D8D8" x="0" y="0" width="159" height="61"></rect>
                <path d="M18.0002933,35.9521193 C18.0002933,37.248066 19.0505733,38.2666659 20.3462266,38.2666659 L29.8371729,38.2666659 L29.8371729,35.9199993 L20.3038399,35.9199993 L20.3038399,33.5733327 L29.7312796,33.5733327 C31.0270795,33.5733327 32.1838395,32.5060395 32.1838395,31.2102395 L32.1838395,31.2672928 L32.1838395,26.5748397 C32.1838395,25.278893 31.0272262,24.0399998 29.7312796,24.0399998 L20.3462266,24.0399998 C19.0504266,24.0399998 18,25.270093 18,26.565893 L18.0002933,35.9521193 Z M61.5362385,24.0399998 L52.1511855,24.0399998 C50.8553855,24.0399998 49.6371722,25.278893 49.6371722,26.5748397 L49.6371722,35.9598927 L49.6371722,35.9026927 C49.6371722,37.1986393 50.8555322,38.2666659 52.1511855,38.2666659 L61.5171718,38.2666659 L61.5171718,40.6133325 L51.9838388,40.6133325 L51.9838388,42.9599991 L61.5362385,42.9599991 C62.8321851,42.9599991 63.8638384,41.9482925 63.8638384,40.6523458 L63.8638384,26.5748397 C63.8638384,25.278893 62.8321851,24.0399998 61.5362385,24.0399998 Z M43.2875324,24.0399998 L36.248706,24.0399998 C34.9529061,24.0399998 33.7971728,25.278893 33.7971728,26.5748397 L33.7971728,38.2666659 L36.1438394,38.2666659 L36.1438394,26.3866663 L43.2875324,26.3866663 C44.5833324,26.3866663 45.6771724,27.6252663 45.6771724,28.9210662 L45.6771724,38.2666659 L48.0238389,38.2666659 L48.0238389,28.9210662 C48.0238389,26.3293197 45.879279,24.0399998 43.2875324,24.0399998 Z M77.3571566,35.9199993 L72.1940501,35.9199993 L67.8238236,35.9199993 L67.8238236,31.2672928 L67.8238236,28.9210662 C67.8238236,27.6252663 69.1040769,26.3866663 70.4000235,26.3866663 L77.3571566,26.3866663 L77.3571566,38.2666659 L79.7038232,38.2666659 L79.7038232,26.5748397 C79.7038232,25.278893 78.7346499,24.0399998 77.4387032,24.0399998 L70.4000235,24.0399998 C67.8082769,24.0399998 65.477157,26.3293197 65.477157,28.9210662 L65.477157,35.9598927 C65.477157,37.2556926 66.7578503,38.2666659 68.0536502,38.2666659 L72.1940501,38.2666659 C74.2781833,38.2666659 76.4771566,37.3997193 77.3571566,35.9603327 L77.3571566,38.2666659 L77.3571566,35.9199993 Z M131.183821,17 L128.837155,17 L128.837155,38.2666659 L131.183821,38.2666659 L131.183821,26.3866663 L138.370488,26.3866663 L138.370488,24.0399998 L131.183821,24.0399998 L131.183821,17 Z M93.050504,24.0399998 L83.9561443,24.0399998 C82.6603444,24.0399998 81.3171711,25.278893 81.3171711,26.5748397 L81.3171711,35.9598927 L81.3171711,35.9026927 C81.3171711,37.1986393 82.6603444,38.2666659 83.9561443,38.2666659 L95.5438373,38.2666659 L95.5438373,17 L93.050504,17 L93.050504,24.0399998 Z M112.99717,35.9598927 C112.99717,37.2556926 114.351197,38.2666659 115.646997,38.2666659 L124.87717,38.2666659 L124.87717,35.9199993 L115.343837,35.9199993 L115.343837,33.5733327 L125.032196,33.5733327 C126.327996,33.5733327 127.223836,32.5060395 127.223836,31.2102395 L127.223836,31.2672928 L127.223836,26.5748397 C127.223836,25.278893 126.327996,24.0399998 125.032196,24.0399998 L115.646997,24.0399998 C114.351197,24.0399998 112.99717,25.278893 112.99717,26.5748397 L112.99717,35.9598927 Z M109.122823,24.0399998 L99.7377705,24.0399998 C98.4418238,24.0399998 97.1571705,25.278893 97.1571705,26.5748397 L97.1571705,35.9598927 L97.1571705,35.9026927 C97.1571705,37.1986393 98.4419705,38.2666659 99.7377705,38.2666659 L109.03717,38.2666659 L109.03717,40.6133325 L99.6505038,40.6133325 L99.6505038,42.9599991 L109.122823,42.9599991 C110.418623,42.9599991 111.383837,41.9482925 111.383837,40.6523458 L111.383837,26.5748397 C111.383837,25.278893 110.418623,24.0399998 109.122823,24.0399998 Z M99.6505038,35.9199993 L109.03717,35.9199993 L109.03717,26.3866663 L99.6505038,26.3866663 L99.6505038,35.9199993 Z M115.343837,31.2266662 L124.87717,31.2266662 L124.87717,26.3866663 L115.343837,26.3866663 L115.343837,31.2266662 Z M83.6638377,35.9199993 L93.050504,35.9199993 L93.050504,26.3866663 L83.6638377,26.3866663 L83.6638377,35.9199993 Z M51.9838388,35.9199993 L61.5171718,35.9199993 L61.5171718,26.3866663 L51.9838388,26.3866663 L51.9838388,35.9199993 Z M20.3038399,31.2266662 L29.8371729,31.2266662 L29.8371729,26.3866663 L20.3038399,26.3866663 L20.3038399,31.2266662 Z" id="Combined-Shape" fill="#A9A9A9"></path>
            </g>
        </g>
    </g>
</svg>
