<?xml version="1.0" encoding="UTF-8" standalone="no"?>
<svg width="159px" height="61px" viewBox="0 0 159 61" version="1.1" xmlns="http://www.w3.org/2000/svg" xmlns:xlink="http://www.w3.org/1999/xlink">
    <!-- Generator: Sketch 3.8.2 (29753) - http://www.bohemiancoding.com/sketch -->
    <title>quote_logo_forbes</title>
    <desc>Created with Sketch.</desc>
    <defs></defs>
    <g id="Page-1" stroke="none" stroke-width="1" fill="none" fill-rule="evenodd">
        <g id="Artboard-1" transform="translate(-302.000000, -62.000000)">
            <g id="quote_logo_forbes" transform="translate(302.000000, 62.000000)">
                <rect id="Rectangle-1" fill-opacity="0" fill="#D8D8D8" x="0" y="0" width="159" height="61"></rect>
                <path d="M58.424197,40.9025446 C57.0266333,40.6991641 55.8042759,40.1080006 54.8708274,39.1840438 C54.092213,38.4133476 53.5873895,37.5657757 53.2152572,36.4044292 C52.6342663,34.5912786 52.6340622,32.2601327 53.2147385,30.4839616 C53.7774834,28.7626391 55.0445473,27.2643062 56.5952896,26.4863803 C58.7428408,25.4090668 61.7654445,25.4767395 63.7544274,26.6466656 C65.544449,27.6995618 66.6287608,29.5704138 66.9304156,32.1264593 C67.0225213,32.9069103 66.9627613,34.5553152 66.8176921,35.2357742 C66.2239468,38.0207851 64.4947053,39.9662745 61.9612369,40.699546 C61.6882356,40.7785614 61.2648908,40.8710069 61.0204704,40.9049792 C60.5032556,40.9768687 58.9247554,40.9753884 58.4241964,40.9025428 L58.424197,40.9025446 Z M83.1779871,40.9018067 C82.606203,40.8438773 80.8588844,40.5532892 80.248523,40.4146215 L79.8262548,40.3186873 L79.8591832,38.0652194 C79.9384625,32.6397685 79.9484342,29.6780225 79.8971197,26.797707 C79.8468519,23.9761177 79.8321926,23.6777856 79.7233106,23.26041 C79.5853468,22.7315592 79.3862184,22.3626601 79.1467202,22.1922371 C79.0536796,22.1260314 78.8008984,22.0322059 78.5849851,21.9837368 C77.8673082,21.8226302 77.9062925,21.8484639 77.8871323,21.5212829 C77.8760955,21.3328162 77.89653,21.2083101 77.944769,21.1701061 C78.0094391,21.1188902 83.8957556,19.9968553 84.0832402,20.0000066 C84.1371138,20.0009121 84.1447449,20.7530513 84.1171444,23.3418434 C84.0975554,25.179211 84.095039,26.6825115 84.1115537,26.6825115 C84.1280666,26.6825115 84.3431545,26.5894399 84.5895265,26.4756861 C85.332167,26.1327971 86.0166567,25.9840152 87.0108271,25.949388 C87.6727387,25.9263334 87.9793428,25.9407708 88.3189415,26.0109859 C90.539271,26.4700571 92.182367,28.2861878 92.7565735,30.9159446 C92.9063654,31.6019623 92.9620932,33.3068867 92.8626388,34.160867 C92.7778725,34.8887271 92.5360342,35.8694258 92.2843706,36.5058513 C91.334743,38.9073408 89.2972722,40.4740693 86.59439,40.8812058 C85.9717911,40.9749881 84.0166791,40.9867772 83.1779882,40.9018067 L83.1779871,40.9018067 Z M99.748532,40.8732987 C96.889142,40.3578912 94.8442147,38.3315421 94.176027,35.3514068 C94.090085,34.9681043 94.0520793,34.539223 94.030529,33.7094344 C93.9964311,32.3966623 94.103278,31.5818659 94.4422796,30.5694602 C95.0932052,28.6255133 96.2598014,27.2480152 97.9543888,26.4224111 C99.7430277,25.5509859 102.188448,25.4939106 103.771376,26.286644 C105.553588,27.1791819 106.602288,28.9613138 106.868327,31.5495196 C106.904142,31.8979858 106.924903,32.3126895 106.914465,32.4710832 L106.89548,32.7590719 L102.630366,32.7738278 L98.3652518,32.7885832 L98.3815111,33.2922074 C98.4191709,34.4587866 98.6701441,35.4906263 99.1344305,36.3877288 C99.3454615,36.7954873 99.513409,37.0177943 99.921442,37.4294781 C100.843202,38.3594827 101.760179,38.7195665 103.206732,38.7195665 C104.255576,38.7195665 105.009832,38.510402 105.798642,38.0007992 C106.019581,37.8580611 106.243447,37.7412754 106.296122,37.7412754 C106.41653,37.7412754 106.693751,38.0979188 106.693751,38.2528215 C106.693751,38.5066334 105.866809,39.3251006 105.060236,39.8695973 C104.399644,40.3155442 103.352011,40.7193314 102.443577,40.8781295 C101.807349,40.9893449 100.378126,40.986783 99.748532,40.873297 L99.748532,40.8732987 Z M111.275867,40.929153 C110.248995,40.8191598 108.614764,40.4616126 108.070634,40.2278914 L107.804865,40.1137373 L107.768623,38.7979115 C107.748693,38.074207 107.725701,37.1065784 107.717534,36.6476253 L107.702681,35.8131655 L107.861966,35.736875 C107.949568,35.6949151 108.12638,35.6557187 108.254869,35.6497711 L108.488494,35.6389583 L108.687536,36.12852 C109.464069,38.0384739 110.374787,39.068289 111.56431,39.3815003 C112.018083,39.5009828 112.868875,39.5020333 113.204805,39.3835277 C114.145804,39.0515701 114.661814,38.3395568 114.666304,37.3668925 C114.671606,36.214958 114.038006,35.6614755 111.644309,34.7270791 C110.161318,34.1481834 109.644,33.8502171 109.028037,33.2201532 C108.363572,32.5404758 108.044651,31.7668007 107.984778,30.6892825 C107.912427,29.3872064 108.320235,28.2895388 109.223857,27.3541465 C110.133214,26.4128194 111.313746,25.9026377 112.921907,25.7559848 C114.338069,25.6268409 116.511847,25.9269935 117.650771,26.4089401 L117.858557,26.4968654 L117.895612,27.6696473 C117.915992,28.3146768 117.93707,29.1793552 117.942453,29.5911547 L117.95224,30.3398803 L117.673198,30.4434162 C117.232012,30.6071153 117.203038,30.5865996 116.957615,29.9367855 C116.269693,28.1153276 115.470428,27.2534674 114.225037,26.9901991 C113.466043,26.8297526 112.83204,27.0022434 112.371223,27.4945617 C112.011714,27.8786458 111.87145,28.2197275 111.837461,28.7924862 C111.800643,29.4130608 111.911622,29.7484927 112.291045,30.1633554 C112.758691,30.6746936 113.524856,31.1160857 115.051069,31.753427 C116.920411,32.5340583 117.812367,33.1967898 118.297259,34.1653866 C118.612174,34.7944362 118.701332,35.296871 118.669655,36.2639674 C118.64588,36.9896567 118.622641,37.1388279 118.457431,37.6260822 C117.918793,39.2146668 116.702821,40.2605085 114.824361,40.7508287 C114.188092,40.9169094 114.097268,40.925503 112.832057,40.9393461 C112.102953,40.9473233 111.402667,40.9427386 111.275867,40.9291553 L111.275867,40.929153 Z M38.5816106,40.583016 C38.53369,40.5636925 38.5095647,40.420148 38.5095647,40.1543455 C38.5095647,39.6771103 38.4791265,39.6984779 39.4029332,39.5271949 C40.1114692,39.3958254 40.3649609,39.2614856 40.6778436,38.8515459 C41.2844859,38.056722 41.415607,36.526325 41.4169661,30.2247718 C41.4182427,24.3068663 41.3041596,23.0619501 40.6767537,22.147312 C40.3983926,21.7415147 39.9292922,21.5211683 39.1435682,21.4271429 L38.5383831,21.3547218 L38.5216921,20.8825782 L38.5050011,20.4104347 L38.6946021,20.3766715 C38.7988826,20.358102 42.462723,20.3502554 46.8364699,20.3592343 L54.7887373,20.3755604 L54.826023,20.6059513 C54.8465301,20.7326663 54.8801882,22.0324126 54.9008187,23.4942764 L54.9383286,26.1522098 L54.5283117,26.2766647 C53.9111232,26.4640036 53.9148575,26.4662856 53.6372147,25.7321492 C52.9552403,23.9288881 52.1732317,22.8898199 51.103178,22.3651294 C50.3651663,22.0032526 50.023933,21.9594979 47.9397379,21.9594979 L46.1259002,21.9594979 L46.0946329,22.261886 C46.0359979,22.828938 45.9434144,26.4766348 45.9440559,28.1944519 L45.9446957,29.9079843 L46.4778349,29.9049316 C46.7710615,29.9032498 47.349268,29.8816881 47.7627385,29.8570109 C48.3842964,29.8199139 48.5689764,29.7869415 48.829017,29.6666406 C49.4679351,29.3710612 49.9026044,28.7205184 50.1689008,27.6613198 L50.3063798,27.1144945 L50.7768248,27.0977658 L51.2472697,27.0810371 L51.2472697,30.5415593 L51.2472697,34.0020815 L50.7766443,33.9853528 L50.306019,33.9686242 L50.1724333,33.4214457 C49.9214389,32.3933511 49.4384026,31.6573298 48.8415172,31.3934775 C48.5658623,31.2716249 47.8837801,31.2023694 46.5642899,31.1622601 L45.9446957,31.1434256 L45.9446957,32.4434835 C45.9446957,33.8601959 46.0226308,35.7767505 46.1225371,36.8168958 C46.2618115,38.2669174 46.6326038,39.0681836 47.2985108,39.3581243 C47.4256671,39.4134895 47.827974,39.5034191 48.192526,39.5579676 C48.5570779,39.6125167 48.9007366,39.6805702 48.9562119,39.709198 C49.0969001,39.7817999 49.1052027,40.5327839 48.965907,40.5862006 C48.8568947,40.6280044 38.6854429,40.6248849 38.5816106,40.5830154 L38.5816106,40.583016 Z M66.9936465,40.5721375 C66.9410761,40.5386646 66.9238986,40.4058281 66.9360098,40.126425 L66.9532634,39.728397 L67.1549917,39.6854689 C67.2659423,39.6618584 67.504255,39.6149946 67.6845759,39.581327 C68.2426407,39.4771304 68.5633577,39.1744134 68.7438204,38.5815329 C68.8908418,38.0985161 68.9556525,36.5532664 68.9590357,33.4502446 C68.9631741,29.6551372 68.8840602,28.7589108 68.5000668,28.2508648 C68.2919518,27.975516 68.1419304,27.8972113 67.6369484,27.800355 C67.3877223,27.7525529 67.1254529,27.7013001 67.0541275,27.6864601 C66.9386254,27.6624286 66.924445,27.624823 66.924445,27.3425533 C66.924445,27.0680788 66.9418156,27.01849 67.0541275,26.9723369 C67.2266312,26.9014491 72.9364112,25.7609478 73.118799,25.7609478 L73.261089,25.7609478 L73.2331865,26.6105143 C73.2178396,27.0777759 73.1933048,27.7581491 73.1786645,28.1224547 L73.1520456,28.7848286 L73.3588961,28.4120549 C74.0210752,27.2187176 74.7636834,26.4779445 75.7511593,26.0257033 C76.2932334,25.7774461 76.654911,25.7033503 77.3246307,25.7033503 C78.1188773,25.7033503 78.9128732,25.9623285 78.9128732,26.2213887 C78.9128732,26.3955809 77.5135332,30.0905518 77.4363553,30.1201473 C77.3987059,30.1345853 77.1254648,30.0301433 76.829153,29.8880555 C76.2111956,29.5917302 75.6314398,29.4468315 75.0686563,29.4480538 C74.3678261,29.4495743 73.5849552,29.7075459 73.2758578,30.0388141 C73.1436433,30.1805114 73.1430208,30.1890313 73.1101719,32.305226 C73.0776412,34.4009153 73.1475297,36.9572131 73.2654642,37.9853412 C73.3659335,38.861216 73.5988145,39.2924352 74.0797954,39.4932157 C74.2402559,39.5601984 75.2554747,39.6992007 75.5867795,39.6995498 C75.6118883,39.6995763 75.6248566,39.9004702 75.6155978,40.1459806 L75.5987645,40.5923629 L71.3336506,40.6060925 C68.9878379,40.6136436 67.034836,40.5983641 66.9936465,40.5721375 L66.9936465,40.5721375 Z M101.558243,31.4848903 L102.561035,31.4500276 L102.524937,30.7382089 C102.397629,28.2281189 101.782968,26.8564186 100.785992,26.857517 C99.7024688,26.8587093 98.8365988,28.2507709 98.4765944,30.5703582 C98.4323409,30.8554669 98.3956725,31.1935656 98.3951019,31.3216883 L98.3940644,31.5546389 L99.474752,31.537196 C100.06913,31.5276025 101.0067,31.5040652 101.558237,31.4848903 L101.558243,31.4848903 Z M85.487982,39.7563377 C85.9066997,39.676983 86.2319884,39.5104576 86.5812344,39.196668 C87.4565482,38.4102171 88.1146454,36.7866115 88.373475,34.7749924 C88.4788954,33.9556635 88.4646972,32.0887103 88.3478446,31.4048404 C88.0318141,29.5552973 87.3526782,28.3397018 86.3619396,27.8502369 C85.9509607,27.6471963 85.8875845,27.632874 85.4001195,27.632874 C85.051485,27.632874 84.7515686,27.6701749 84.4965563,27.7452512 L84.114843,27.8576278 L84.0866529,29.9627638 C84.0505418,32.6594001 84.1383334,39.4105134 84.2120305,39.6042203 C84.2590609,39.7278372 84.3108411,39.7540464 84.5441895,39.7723481 C85.0934653,39.8154283 85.1843197,39.813887 85.487982,39.7563377 L85.487982,39.7563377 Z M60.5150273,39.7841453 C60.9233278,39.6629746 61.4268556,39.1911064 61.695367,38.6780201 C62.2496785,37.6188105 62.4972044,36.0525244 62.5033265,33.5654401 C62.5109991,30.4484825 62.0220568,28.4650472 60.9900059,27.4265302 C60.5566087,26.9904174 60.2492957,26.8549764 59.6951842,26.8558674 C58.4654061,26.857843 57.6848787,28.1408031 57.3764954,30.6671143 C57.2347455,31.8283415 57.2340008,34.5948272 57.375164,35.6101594 C57.8120154,38.7522509 58.9398902,40.251594 60.5150267,39.7841453 L60.5150273,39.7841453 Z" id="path2995" fill="#A9A9A9"></path>
            </g>
        </g>
    </g>
</svg>
