<?xml version="1.0" encoding="UTF-8" standalone="no"?>
<svg width="159px" height="61px" viewBox="0 0 159 61" version="1.1" xmlns="http://www.w3.org/2000/svg" xmlns:xlink="http://www.w3.org/1999/xlink">
    <!-- Generator: Sketch 3.8.2 (29753) - http://www.bohemiancoding.com/sketch -->
    <title>quote_logo_mash</title>
    <desc>Created with Sketch.</desc>
    <defs></defs>
    <g id="Page-1" stroke="none" stroke-width="1" fill="none" fill-rule="evenodd">
        <g id="Artboard-1" transform="translate(-869.000000, -62.000000)">
            <g id="quote_logo_mash" transform="translate(869.000000, 62.000000)">
                <rect id="Rectangle-1" fill-opacity="0" fill="#D8D8D8" x="0" y="0" width="159" height="61"></rect>
                <path d="M112.54054,39.1904501 L116.500356,39.1904501 L116.500356,22.0394662 L112.54054,22.0394662 L112.54054,39.1904501 Z M56.2595558,39.1509839 L56.2595558,37.9166194 C55.4893968,38.8415136 53.994796,39.4604542 52.4017274,39.4604542 C50.4991885,39.4604542 48.1324441,38.1487222 48.1324441,35.370523 C48.1324441,32.3637378 50.4991885,31.3579594 52.4017274,31.3579594 C54.0475466,31.3579594 55.5140138,31.8995324 56.2595558,32.8244266 L56.2595558,31.5900621 C56.2595558,30.5104328 55.3346617,29.7648908 53.7380763,29.7648908 C52.5037119,29.7648908 51.2693475,30.2537132 50.2670858,31.1012398 L48.8006186,28.3511743 C50.3972039,26.9866916 52.5318456,26.4240184 54.4343845,26.4240184 C57.4165527,26.4240184 60.2193688,27.5282646 60.2193688,31.3860931 L60.2193688,39.1509839 L56.2595558,39.1509839 Z M60.5007054,37.5354083 L62.1465247,34.7079753 C63.0714188,35.5308849 65.0513253,36.3784115 66.5177924,36.3784115 C67.6994063,36.3784115 68.1882286,36.0443242 68.1882286,35.5027512 C68.1882286,33.9624332 60.9649108,35.5555018 60.9649108,30.5160596 C60.9649108,28.3286673 62.8674498,26.4261284 66.2856897,26.4261284 C68.3957144,26.4261284 70.1435182,27.0943029 71.4798671,28.0719477 L69.9641661,30.8747638 C69.218624,30.1538387 67.8049075,29.5137979 66.3138234,29.5137979 C65.3854125,29.5137979 64.7699887,29.8725021 64.7699887,30.3613244 C64.7699887,31.7222903 71.9686895,30.3085738 71.9686895,35.4007667 C71.9686895,37.767511 69.8867985,39.4625642 66.3384403,39.4625642 C64.1018142,39.4625642 61.8124374,38.7170221 60.5007054,37.5354083 Z M80.9249646,39.1904501 L80.9249646,31.9636156 C80.9249646,30.4479146 80.1266719,29.9590922 78.8676905,29.9590922 C77.7106937,29.9590922 76.9405347,30.6026497 76.4763292,31.1688397 L76.4763292,39.1904501 L72.5165163,39.1904501 L72.5165163,22.0394663 L76.4763292,22.0394663 L76.4763292,28.288656 C77.2218713,27.4129958 78.6883384,26.4634847 80.7702294,26.4634847 C83.5976625,26.4634847 84.8847775,28.0565533 84.8847775,30.34593 L84.8847775,39.1904501 L80.9249646,39.1904501 Z M93.5412301,39.1509839 L93.5412301,37.9166194 C92.7710711,38.8415136 91.2764703,39.4604542 89.6834017,39.4604542 C87.7808627,39.4604542 85.4141184,38.1487222 85.4141184,35.370523 C85.4141184,32.3637378 87.7808627,31.3579594 89.6834017,31.3579594 C91.3292209,31.3579594 92.795688,31.8995324 93.5412301,32.8244266 L93.5412301,31.5900621 C93.5412301,30.5104328 92.6163359,29.7648908 91.0197506,29.7648908 C89.7853862,29.7648908 88.5510217,30.2537132 87.54876,31.1012398 L86.0822929,28.3511743 C87.6788782,26.9866916 89.8135198,26.4240184 91.7160588,26.4240184 C94.698227,26.4240184 97.5010431,27.5282646 97.5010431,31.3860931 L97.5010431,39.1509839 L93.5412301,39.1509839 Z M98.862009,39.1509839 L98.862009,22 L102.821822,22 L102.821822,28.1964391 C103.799467,26.9620747 105.135816,26.4240184 106.500298,26.4240184 C109.612585,26.4240184 111.975812,28.8646136 111.975812,32.9299278 C111.975812,37.1464604 109.559834,39.4604542 106.500298,39.4604542 C105.111199,39.4604542 103.852217,38.8942642 102.821822,37.7126504 L102.821822,39.1509839 L98.862009,39.1509839 Z M117.065549,32.9318272 C117.065549,29.3307185 119.76638,26.4259178 123.648826,26.4259178 C127.327302,26.4259178 130,29.1267494 130,33.343282 L130,34.2435592 L121.15548,34.2435592 C121.436817,35.3478055 122.467212,36.2762163 124.26425,36.2762163 C125.13991,36.2762163 126.58176,35.8893785 127.299168,35.221204 L129.022355,37.8165344 C127.787991,38.9242973 125.730717,39.4623536 123.828178,39.4623536 C119.998483,39.4623536 117.065549,36.9690078 117.065549,32.9318272 Z M43.0444759,39.1904501 L43.0444759,27.8490675 L38.7259588,39.1904501 L36.7706692,39.1904501 L32.4240184,27.8490675 L32.4240184,39.1904501 L28,39.1904501 L28,22.0394663 L34.1472052,22.0394663 L37.748314,31.5029269 L41.3212891,22.0394663 L47.4684943,22.0394663 L47.4684943,39.1904501 L43.0444759,39.1904501 Z M123.648826,29.6155718 C121.925639,29.6155718 121.257464,30.6424505 121.102729,31.5427277 L126.219539,31.5427277 C126.117555,30.6670674 125.473997,29.6155718 123.648826,29.6155718 Z M105.188566,35.9613299 C106.757018,35.9613299 107.938632,34.8043331 107.938632,32.9299278 C107.938632,31.0766228 106.757018,29.9196259 105.188566,29.9196259 C104.34104,29.9196259 103.310644,30.3838314 102.821822,31.0520058 L102.821822,34.8570837 C103.310644,35.5252582 104.34104,35.9613299 105.188566,35.9613299 Z M93.5412301,35.9613299 L93.5412301,34.8570837 C93.1297753,34.2662768 92.2048811,33.9814234 91.3292209,33.9814234 C90.3023422,33.9814234 89.3493144,34.4456289 89.3493144,35.4232736 C89.3493144,36.4009184 90.3023422,36.8616071 91.3292209,36.8616071 C92.2048811,36.8616071 93.1297753,36.5556535 93.5412301,35.9613299 Z M56.2595558,35.9613299 L56.2595558,34.8570837 C55.848101,34.2662768 54.9232069,33.9814234 54.0475466,33.9814234 C53.020668,33.9814234 52.0676401,34.4456289 52.0676401,35.4232736 C52.0676401,36.4009184 53.020668,36.8616071 54.0475466,36.8616071 C54.9232069,36.8616071 55.848101,36.5556535 56.2595558,35.9613299 Z" id="Combined-Shape" fill="#A9A9A9"></path>
            </g>
        </g>
    </g>
</svg>
