<?xml version="1.0" encoding="UTF-8" standalone="no"?>
<svg width="160px" height="61px" viewBox="0 0 160 61" version="1.1" xmlns="http://www.w3.org/2000/svg" xmlns:xlink="http://www.w3.org/1999/xlink">
    <!-- Generator: Sketch 3.8.2 (29753) - http://www.bohemiancoding.com/sketch -->
    <title>quote_logo_time</title>
    <desc>Created with Sketch.</desc>
    <defs></defs>
    <g id="Page-1" stroke="none" stroke-width="1" fill="none" fill-rule="evenodd">
        <g id="Artboard-1" transform="translate(-1470.000000, -62.000000)">
            <g id="quote_logo_time" transform="translate(1470.000000, 62.000000)">
                <rect id="Rectangle-1" fill-opacity="0" fill="#D8D8D8" x="0.768429302" y="0" width="159" height="61"></rect>
                <path d="M52.914659,20.4990961 L51.0229094,20.490764 L48.0910273,20.490764 C47.8875835,20.490764 46.3152337,20.5060396 46.3152337,20.5060396 L46.2871127,23.0487399 L46,23.0567249 L46.0173587,20.199138 L46.0069435,19.0249965 C47.0061094,19.0736008 50.6167161,19.1055408 54.3630677,19.1055408 C58.7315546,19.1055408 61.5457448,19.0614497 62.6504516,19.0284682 L62.637259,20.3293282 L62.6605196,23.2198966 L62.3626446,23.216772 C62.3647276,22.9806939 62.3140402,22.0214529 62.3168176,21.927716 C62.3182063,21.8926514 62.2543264,20.6042898 62.2452999,20.5077755 L60.9913084,20.4904168 L57.2331529,20.4897224 L55.7930763,20.4952772 L55.7951593,38.327161 C55.7951593,38.3514631 55.8222389,39.4960949 55.8270993,39.7335617 C55.9718707,39.7547393 57.3647317,39.8509064 57.6164327,39.8509064 L57.7146828,39.8495177 L57.7146828,40.3355609 C57.6400405,40.3355609 57.5469979,40.3435459 57.469231,40.3428516 C56.6780221,40.3341722 55.40077,40.2390466 54.4929107,40.2390466 C53.5996327,40.2390466 52.3397393,40.3272288 51.4075779,40.3414629 C51.3829285,40.3421572 51.191983,40.3379911 51.120118,40.3341722 L51.118035,39.8168834 C51.1270615,39.8168834 51.1846923,39.8154947 51.2718329,39.8127173 C51.6655279,39.7964001 52.634837,39.7314787 52.8879266,39.7103011 L52.92681,39.7040519 L52.914659,20.4990961 L52.914659,20.4990961 L52.914659,20.4990961 Z M69.7921622,40.3563913 C69.0589313,40.3563913 67.8122304,40.2341862 66.8786803,40.2341862 C65.9551982,40.2341862 64.7019011,40.3563913 63.7999438,40.3563913 C63.7232184,40.3563913 63.5878206,40.3393798 63.5135254,40.3393798 L63.5135254,39.8328534 C63.6916256,39.8286873 64.4894308,39.756128 64.7105804,39.7398108 C64.9706135,39.7207163 65.2108578,39.7078708 65.3177873,39.6728063 C65.3177873,39.6728063 65.3198703,39.0624749 65.323342,38.1167737 C65.3330629,34.8450086 65.3521575,25.596995 65.3219534,21.4125102 C65.3184816,20.9709052 65.3157042,19.8516171 65.3157042,19.6898342 C65.1466306,19.6731698 64.9105525,19.6506036 64.7411317,19.6280373 C64.5297029,19.6165805 63.6582969,19.533606 63.5097065,19.5249267 L63.5041518,19.0184002 C64.3686143,19.0184002 65.6517684,19.1065823 66.6932895,19.1065823 C67.6882894,19.1065823 69.0381008,19.0184002 70.0605274,19.0184002 L70.0584444,19.5464514 C69.8963143,19.557561 69.5019249,19.5822103 69.4887323,19.583599 C69.1908573,19.6120673 68.3572932,19.7064985 68.1524607,19.7210798 L68.1524607,21.3489774 C68.1517663,25.0960233 68.1479474,34.8988205 68.1462116,38.1997482 L68.1462116,39.2697376 C68.1462116,39.5221329 68.1476003,39.6731535 68.1500305,39.6825272 C68.1552381,39.7016217 68.6777345,39.750226 68.7982038,39.7578639 C69.0287272,39.7849434 69.9772058,39.8262571 70.0060212,39.8332006 L70.0699011,39.8332006 L70.0692068,40.339727 C70.0070627,40.3393798 69.855695,40.3563913 69.7921622,40.3563913 L69.7921622,40.3563913 L69.7921622,40.3563913 Z M76.3742287,26.1246991 C76.3742287,26.1246991 75.9020725,28.7340567 75.2209176,32.4154869 C74.8598569,34.4044451 74.1127391,39.3780558 74.0623989,39.706135 C74.4932415,39.7707093 75.3417341,39.8397969 75.5726046,39.832159 C75.6257222,39.832159 75.7166817,39.8342421 75.7829919,39.8342421 L75.7822975,40.3379911 C75.6857832,40.3501422 75.4608147,40.3515309 75.4510938,40.3515309 C74.6338469,40.3345194 74.0450402,40.2720281 73.163219,40.2720281 C72.9313069,40.2720281 71.7047422,40.3359081 71.2728581,40.3508366 C71.0926749,40.3588216 70.8378494,40.3393798 70.7888979,40.3414629 L70.7895923,39.8422271 C70.8316003,39.8422271 70.9173522,39.8245212 70.9718585,39.8231325 C71.3624289,39.8054267 71.964081,39.7450184 72.473732,39.6787082 C72.5153928,39.4339508 72.9559563,36.9818628 73.0958673,36.1132341 C73.6371111,33.2389829 75.2327215,23.6351163 75.4323464,22.3398112 C75.607322,20.9410483 75.8107658,19.2013608 75.8295131,19.010068 C76.2523707,19.0173587 76.9821299,19.0006943 76.9821299,19.0006943 C76.9821299,19.0006943 78.3940854,23.3879286 78.6235672,24.0302 C78.8530491,24.6728186 83.1680712,35.7743926 83.1680712,35.7743926 C83.1680712,35.7743926 85.1934827,30.9913803 86.9984389,25.8584168 C87.3640128,24.8193259 87.8434597,23.4639597 88.1965354,22.3668907 C88.7131299,20.7612123 89.2814532,19 89.2814532,19 L90.392062,19 C90.392062,19 90.6673707,20.9608372 90.7649266,21.8336319 C91.0482203,24.3749435 92.904211,34.7002371 93.5558561,38.0959433 C93.7179862,38.9454774 93.8412329,39.6811385 93.8412329,39.6811385 C94.0332199,39.6946782 94.7831152,39.7693206 95.2278447,39.8057738 C95.3208873,39.8137588 95.570158,39.8272986 95.6270945,39.8272986 L95.6298719,40.3393798 C95.6298719,40.3393798 95.4271224,40.3494479 95.3167212,40.3494479 C94.3213741,40.3431987 92.7712435,40.2539751 91.8144327,40.2539751 C90.9635099,40.2539751 90.1448743,40.3272288 89.2939515,40.345629 C89.1488329,40.3484064 89.0030199,40.3414629 88.8551239,40.3414629 L88.8551239,39.8356308 C88.8599844,39.8349364 88.973163,39.8283401 89.0328769,39.8307703 C89.4484438,39.8109814 90.5503732,39.7026632 90.6597329,39.6978028 C90.6604273,39.5120649 90.600019,38.8684048 90.5104482,38.2115521 C90.4486513,37.747728 90.3438048,36.9551304 90.2309734,36.1739896 C89.9889933,34.6551045 88.867275,28.3625809 88.5336411,26.6156027 C88.4787876,26.3291844 88.4447646,26.168443 88.4447646,26.168443 C88.4447646,26.168443 84.97025,35.0821282 84.2693063,36.83848 C84.2016074,37.0106782 84.1526559,37.132189 84.1363387,37.172114 C83.4662934,38.8638915 82.9049135,40.3720142 82.9049135,40.3720142 L81.9161628,40.365765 L76.502683,26.4489593 L76.3742287,26.1246991 L76.3742287,26.1246991 L76.3742287,26.1246991 Z M110.750676,23.1893453 L110.463911,23.1900396 L110.461133,23.0400606 C110.431276,22.6685847 110.368785,21.6173427 110.289629,20.7330912 C110.282339,20.6542828 110.26984,20.5924859 110.26984,20.5924859 C110.097642,20.5869311 109.398434,20.5643648 109.386978,20.552908 C109.376215,20.5424928 108.818654,20.534855 108.807198,20.5289531 C108.800948,20.5261757 106.973079,20.5150661 105.087926,20.5136774 C103.801647,20.5122887 102.535504,20.5206209 101.759224,20.5206209 C101.568626,20.5199265 100.884346,20.5466589 100.884346,20.5466589 L100.88018,28.9375005 L106.267622,28.9559008 C106.293313,28.9559008 107.694853,28.9121569 107.728876,28.9128512 C107.813586,28.9135456 108.775952,28.8576506 108.812405,28.8448052 C108.812405,28.8448052 108.826639,28.7569702 108.849553,28.6927431 C108.927667,28.1851751 109.026611,27.7026036 109.050914,27.3262673 C109.050914,27.3262673 109.07591,27.1648315 109.077299,27.055819 L109.383853,27.0492227 C109.383853,27.0884533 109.399476,27.1849676 109.398087,27.3221012 C109.39531,27.8279333 109.358857,28.8777867 109.360245,29.5665793 C109.361634,30.5574131 109.388019,31.452427 109.394268,31.9006282 C109.398434,32.0287353 109.390102,32.2328735 109.390102,32.2328735 L109.053691,32.2328735 C109.047442,32.1853107 109.042234,32.1367064 109.035291,32.0849775 C108.975577,31.5135295 108.92732,31.1097665 108.838096,30.5275562 C108.835319,30.4976992 108.818307,30.3925056 108.811016,30.3255011 C108.639513,30.31335 108.185062,30.2984215 107.944471,30.291478 C107.839277,30.287312 106.525919,30.2779383 105.047653,30.2758552 C104.442182,30.2751609 103.354487,30.3036291 102.89344,30.3022404 C102.352891,30.3022404 101.460654,30.3369578 100.878097,30.3577882 L100.884346,37.9671418 L100.90726,38.946866 L104.17833,39.0038025 L108.836707,38.9996365 C108.857885,38.9996365 109.903225,38.9576284 110.229568,38.9642247 C110.298656,38.9656134 110.438567,38.9534623 110.438567,38.9534623 C110.469118,38.7073162 110.507654,38.2094691 110.545844,37.7341882 C110.549315,37.6779461 110.665271,36.4159696 110.665271,36.0764337 L110.952037,36.072962 C110.952037,36.3937505 110.890934,40.3799992 110.890934,40.3799992 C110.366008,40.3799992 108.754427,40.3786105 106.764775,40.3494479 C105.556957,40.3310477 104.212353,40.3324364 102.88615,40.3129946 C101.809911,40.2973718 100.745477,40.2588355 99.7772091,40.2609186 C98.3971936,40.2623073 97.0459935,40.3525724 96.5210668,40.3532668 C96.4009447,40.3532668 96.1888216,40.3452818 96.1426475,40.3452818 L96.1426475,39.8443101 L96.2395089,39.8443101 C96.5630748,39.8422271 97.5143308,39.7859849 98.0107892,39.6936367 C98.0107892,39.5926092 98.0441179,38.3518103 98.0441179,38.3261194 C98.0441179,38.3261194 98.0413405,22.5703345 98.0413405,21.863836 C98.0413405,21.1028312 98.0278008,19.8339113 98.0278008,19.721427 C97.7469372,19.6880983 97.6472984,19.6707396 97.5882788,19.6582414 C97.290751,19.6162334 96.7026387,19.5648516 96.3880993,19.5426325 C96.2985285,19.5447156 96.2009726,19.5332588 96.1527155,19.5245795 C96.1527155,19.5245795 96.1513268,19.03194 96.1485494,19.0249965 C96.21972,19.0291626 96.3669217,19.018053 96.6307737,19.0197889 C97.1862517,19.0222191 98.2079839,19.1041521 99.457115,19.1055408 C100.241728,19.1062352 101.507523,19.068046 102.414341,19.0562421 C103.707563,19.0562421 104.68937,19.0437439 105.941626,19.0361061 C107.986132,19.0222191 109.732068,19.0076378 110.414265,19.0041661 C110.614237,19.0034717 110.723597,19.0024302 110.723597,19.0024302 C110.723597,19.042008 110.722208,19.0867934 110.722208,19.137828 C110.722208,19.2961392 110.714917,19.5742253 110.718042,19.9151499 C110.724985,20.9757656 110.750676,22.6446297 110.750676,23.1893453 L110.750676,23.1893453 L110.750676,23.1893453 Z" id="Shape" fill="#A9A9A9"></path>
            </g>
        </g>
    </g>
</svg>
