<?xml version="1.0" encoding="UTF-8" standalone="no"?>
<svg width="160px" height="61px" viewBox="0 0 160 61" version="1.1" xmlns="http://www.w3.org/2000/svg" xmlns:xlink="http://www.w3.org/1999/xlink">
    <!-- Generator: Sketch 3.8.2 (29753) - http://www.bohemiancoding.com/sketch -->
    <title>quote_logo_verge</title>
    <desc>Created with Sketch.</desc>
    <defs></defs>
    <g id="Page-1" stroke="none" stroke-width="1" fill="none" fill-rule="evenodd">
        <g id="Artboard-1" transform="translate(-1270.000000, -62.000000)">
            <g id="quote_logo_verge" transform="translate(1270.000000, 62.000000)">
                <rect id="Rectangle-1" fill-opacity="0" fill="#D8D8D8" x="0.0122862011" y="0" width="159" height="61"></rect>
                <path d="M112.708995,39.2760775 C109.709527,38.7514725 107.220807,36.75538 106.09272,33.9690936 C105.511622,32.5340246 105.314961,30.0737287 105.663158,28.5970892 C106.158984,26.4949388 107.493147,24.5722164 109.228624,23.4583413 C110.768863,22.4702436 111.987375,22.1913307 115.210506,22.0904246 L118.097344,22 L118.097344,25.022563 L118.097344,28.045126 L116.987022,27.5928252 C116.257762,27.2957918 115.419425,27.1151202 114.544313,27.0660884 C113.300753,26.9966267 113.156322,27.027538 112.376432,27.5297589 C111.258826,28.2496029 110.743637,29.241076 110.7328,30.691423 C110.725871,31.6315549 110.801196,31.8950121 111.265044,32.5551651 C111.984888,33.5791485 112.964991,34.1206303 114.100184,34.1206303 C115.278902,34.1209856 115.469522,33.9758443 115.400416,33.131289 L115.343745,32.4388034 L113.966946,32.447686 L112.590146,32.4565685 L112.589969,30.4935192 L112.589791,28.5304699 L116.320651,28.5816336 L120.05151,28.6329748 L120.05151,32.2414325 C120.05151,34.4347182 120.129144,36.0724876 120.249237,36.4176645 C120.498126,37.1318236 120.26487,37.4215732 118.822339,38.190449 C117.083664,39.117257 114.462061,39.582704 112.708995,39.2760775 Z M30.9829002,38.6121937 C31.0656858,38.4411153 31.1582423,35.7148751 31.1887983,32.5539216 L31.2442256,26.8065396 L29.6313275,26.8690729 L28.0184293,26.9316062 L28.0674611,24.5333107 L28.1166706,22.1350152 L32.2470685,22.0872269 L36.3774663,22.0394386 L36.3774663,30.4812613 L36.3774663,38.9230839 L33.6052143,38.9230839 C31.0255366,38.9230839 30.8429108,38.9014104 30.9829002,38.6121937 Z M37.4435531,30.4846366 L37.4435531,22.0461894 L41.0854093,22.0461894 L44.7272655,22.0461894 L44.7272655,24.5034652 L44.7272655,26.9607411 L43.7501821,26.879732 L42.7730987,26.7987229 L42.7730987,27.7090093 L42.7730987,28.6192957 L44.2831367,28.6192957 L45.7931746,28.6192957 L45.7931746,25.3327425 L45.7931746,22.0461894 L48.4579474,22.0461894 L51.1227202,22.0461894 L51.1227202,30.4846366 L51.1227202,38.9230839 L48.2845595,38.9230839 L45.4467541,38.9230839 L45.6199644,38.4674077 C45.7153632,38.2167414 45.7933522,36.8177357 45.7933522,35.3585061 L45.7933522,32.7052807 L44.274787,32.7052807 L42.7562218,32.7052807 L42.8104055,35.5032921 C42.8400734,37.0421096 42.9324521,38.4411153 43.0154154,38.6121937 C43.1561154,38.9015881 42.9694037,38.9230839 40.3051638,38.9230839 L37.4435531,38.9230839 L37.4435531,30.4846366 Z M51.8560657,38.6296036 C52.2264691,38.183343 52.3117418,23.8299883 51.950221,22.7804231 L51.6972452,22.0461894 L56.8283541,22.0461894 L61.959463,22.0461894 L61.959463,24.5073736 L61.959463,26.9685577 L61.0267925,26.7239316 C60.5004111,26.586074 59.4750065,26.5006236 58.6729099,26.5278043 L57.2516977,26.5763032 L57.1976916,27.6205388 L57.1436856,28.6647745 L58.6633167,28.5851866 L60.1829478,28.505421 L60.1829478,30.5837662 L60.1829478,32.662289 L59.3968398,32.494586 C58.9646137,32.4023848 58.3049936,32.3521094 57.9312148,32.3828431 L57.2516977,32.4388034 L57.1973363,33.3908379 L57.1427973,34.3428724 L59.1515031,34.2552902 C60.2561402,34.2071466 61.3398145,34.1089053 61.5597471,34.0373118 L61.959463,33.9072708 L61.959463,36.4149997 L61.959463,38.9230839 L56.7858954,38.9230839 C51.9949892,38.9230839 51.630093,38.9014104 51.8560657,38.6296036 Z M72.026797,38.3457164 C69.5686329,32.4642075 65.3385726,22.9324928 65.016668,22.5500091 L64.5926138,22.0461894 L70.5597508,22.0461894 C73.841685,22.0461894 76.5267101,22.106058 76.5263548,22.179428 C76.5259995,22.2526205 76.1774472,23.2320133 75.7517941,24.3556592 L74.9777665,26.3986517 L73.6205088,26.4505259 C72.8740171,26.4789501 72.2632512,26.5326009 72.2632512,26.5693748 C72.2632512,26.7374331 73.9274907,31.2110537 74.0360357,31.3343439 C74.1033657,31.4109117 74.9427691,29.3524635 75.9013767,26.7598172 L77.6443158,22.0461894 L84.5469656,22.0461894 L91.4496155,22.0461894 L91.4496155,24.6409675 C91.4496155,27.0485009 91.4272314,27.2256195 91.1387253,27.0929138 C90.9676469,27.0142142 89.8885916,26.918993 88.7404298,26.8815085 L86.6530244,26.812935 L86.6530244,27.7383218 L86.6530244,28.6638862 L88.1630623,28.5846536 L89.6731003,28.505421 L89.6731003,30.5837662 L89.6731003,32.662289 L88.8869923,32.494586 C88.4547661,32.4023848 87.795146,32.3521094 87.4213672,32.3828431 L86.7418502,32.4388034 L86.6885547,33.4602996 L86.6352593,34.4817959 L88.2206214,34.4817959 C89.1758537,34.4817959 90.1062147,34.3757379 90.5613579,34.2153186 C90.9768848,34.0687561 91.3465776,33.9488413 91.3831738,33.9488413 C91.41977,33.9488413 91.4496155,35.0680459 91.4496155,36.4359626 L91.4496155,38.9230839 L86.2760479,38.9230839 C82.0376379,38.9230839 81.1371223,38.8811581 81.2950545,38.6908934 C81.5069928,38.4354305 81.6805583,26.1318191 81.4719955,26.1319967 C81.4071527,26.1321744 80.1300159,29.010129 78.6340124,32.5276291 L75.91399,38.9230839 L74.0909301,38.9230839 L72.2678702,38.9230839 L72.026797,38.3457164 Z M92.1344621,22.0440576 L92.2787151,22.4437735 C92.4727106,22.9776163 92.467381,38.2131884 92.2732079,38.6100619 C92.1310867,38.8999892 92.3256151,38.9209521 95.1655524,38.9209521 C98.1213184,38.9209521 98.2087229,38.9101153 98.0301831,38.5766634 C97.9290994,38.3876422 97.8470244,37.2638187 97.8470244,36.0785277 C97.8470244,33.9266349 97.847735,33.9230818 98.2467403,34.0410424 C98.9939426,34.2616856 99.9715589,35.0131516 100.445178,35.7287319 C100.979376,36.5359804 101.196466,37.9486653 100.878292,38.5434426 L100.672927,38.9209521 L103.709702,38.9209521 C105.485862,38.9209521 106.704729,38.8543328 106.64646,38.7599998 C106.591388,38.671174 106.401656,37.721449 106.21903,36.650388 C105.816472,34.2911758 105.095029,32.7901981 103.948466,31.914909 L103.18794,31.3320344 L103.621054,30.7491598 C105.070158,28.7846892 104.8385,25.4988467 103.132512,23.7930368 C101.744343,22.4048678 100.1636,22.0516966 95.3879721,22.0499201 L92.1344621,22.0440576 Z M120.876346,38.6121937 C121.071408,38.2142543 121.077093,22.9792152 120.882564,22.4430629 L120.736535,22.0405045 L125.856807,22.0877599 L130.977079,22.1350152 L131.026466,24.5912251 L131.076031,27.047435 L130.671163,26.9177494 C129.686974,26.6020627 128.931599,26.4956494 127.646113,26.4917411 L126.269314,26.4876551 L126.269314,27.5757706 L126.269314,28.6640639 L127.779352,28.5848313 L129.289389,28.5055987 L129.289389,30.624626 C129.289389,32.5702655 129.263808,32.7337049 128.978499,32.6228504 C128.807421,32.5565863 128.136431,32.4571015 127.487115,32.4020295 L126.30662,32.3020117 L126.243554,33.2371693 C126.199497,33.890394 126.250305,34.1989746 126.412501,34.2613303 C126.713975,34.3769815 130.14638,34.191158 130.666011,34.031094 L131.065727,33.9079815 L131.065727,36.4157103 L131.065727,38.9230839 L125.894824,38.9230839 C121.030726,38.9230839 120.733159,38.9046081 120.876346,38.6121937 Z M98.2357259,26.4910305 C98.4068044,26.5016895 98.6542729,26.5986873 99.0074441,26.7464933 C100.065359,27.1884903 100.279429,28.3444688 99.4570801,29.1669953 C99.1081726,29.5159029 98.7583767,29.6832506 98.391171,29.6832506 L97.8472021,29.6832506 L97.8472021,28.0843869 C97.8472021,26.8630327 97.8592824,26.4677581 98.2357259,26.4910305 Z" id="Combined-Shape" fill="#A9A9A9"></path>
            </g>
        </g>
    </g>
</svg>
