<?xml version="1.0" encoding="UTF-8" standalone="no"?>
<svg width="159px" height="61px" viewBox="0 0 159 61" version="1.1" xmlns="http://www.w3.org/2000/svg" xmlns:xlink="http://www.w3.org/1999/xlink">
    <!-- Generator: Sketch 3.8.2 (29753) - http://www.bohemiancoding.com/sketch -->
    <title>quote_logo_wsj</title>
    <desc>Created with Sketch.</desc>
    <defs></defs>
    <g id="Page-1" stroke="none" stroke-width="1" fill="none" fill-rule="evenodd">
        <g id="Artboard-1" transform="translate(-689.000000, -62.000000)">
            <g id="quote_logo_wsj" transform="translate(689.000000, 62.000000)">
                <rect id="Rectangle-1" fill-opacity="0" fill="#D8D8D8" x="0" y="0" width="159" height="61"></rect>
                <path d="M53.4410813,18.8509592 L52.1062516,18.6416224 L52,18.6416224 L52,17.6139372 L59.1959074,17.6139372 L59.1959074,18.6416224 L58.9953663,18.6416224 C58.1713886,18.5402964 57.7611589,18.8509592 57.7611589,19.6693076 L57.7611589,20.1847335 L60.8445664,36.0225551 L62.6958774,25.6348778 L61.6688958,20.3916075 C61.4620219,19.0550186 60.950818,18.5402964 60.0230515,18.6416224 L59.9157444,18.6416224 L59.9157444,17.6139372 L66.9089997,17.6139372 L66.9089997,18.6416224 L66.8104883,18.6416224 C65.6790143,18.5402964 65.1635885,18.9522852 65.1635885,19.8779408 L68.2494587,35.9187663 L68.4528144,35.9187663 L71.2322437,20.6991038 L71.2322437,20.0834074 C71.2322437,18.9522852 70.7161143,18.5399446 69.5856957,18.6423261 L69.2778475,18.6423261 L69.2778475,17.6139372 L75.3391145,17.6139372 L75.3391145,18.6416224 L75.0344327,18.6416224 L73.5933514,18.8509592 L72.6683995,20.9038668 L67.8364144,43.8348626 L66.3988513,43.8348626 L63.4157144,28.8210185 L60.3284369,43.8348626 L58.787085,43.8348626 L54.1591592,20.3916075 L53.4410813,18.8509592 L53.4410813,18.8509592 L53.4410813,18.8509592 Z M86.03464,17.3057372 L86.03464,26.3540111 L85.1110955,26.3540111 L85.1110955,26.0461629 C85.1110955,20.9059778 83.6731806,18.3348297 80.794888,18.3348297 C78.84014,18.2324482 77.8135102,19.2604853 77.9130771,21.5227296 C77.9130771,22.6559628 78.2226845,23.784974 78.9428733,24.8130111 L82.027688,27.5910331 L85.8323398,31.3956849 C86.860025,32.9356294 87.3736917,34.889322 87.3736917,37.048833 C87.3736917,41.3689106 85.3186731,43.5280699 81.3067955,43.5280699 C79.7640363,43.5280699 78.2226845,43.012644 76.6809807,41.8815218 L76.0610624,43.4277993 L75.3408736,43.4277993 L75.3408736,34.2739774 L76.1662586,34.2739774 L76.1662586,34.5818256 C76.1662586,37.3566812 76.7801958,39.4145144 77.913429,40.8548921 C78.8408436,41.8822255 79.866066,42.3969477 80.9992992,42.3969477 C83.366036,42.3969477 84.5981324,41.0610624 84.5981324,38.2816331 C84.5981324,35.7136515 83.0539659,33.2434776 79.9705585,30.880259 C76.7808995,28.5142258 75.1382215,25.9430778 75.1382215,22.9620519 C75.0351364,21.1089817 75.6547028,19.6710668 76.7808995,18.6419743 C77.7072586,17.5115557 78.9428733,17 80.4835215,17 C82.0266326,17 83.3653324,17.5115557 84.6998103,18.6426779 L85.4178882,17.3057372 L86.03464,17.3057372 L86.03464,17.3057372 Z M93.2358248,37.3577367 C93.2358248,38.8990886 92.5166915,39.721659 90.9735804,39.8247441 L91.690251,41.7791403 C92.2039177,42.3948367 92.9248102,42.7040922 93.7491397,42.7040922 L95.5983398,41.8808182 L96.1137656,39.0035811 L96.1137656,20.1847335 C96.0096249,19.1581037 95.5983398,18.6433816 94.6758507,18.6433816 L93.9539027,18.6433816 L93.9539027,17.6139372 L101.869999,17.6139372 L101.869999,18.6437334 L101.152625,18.6437334 C100.228376,18.6437334 99.7115434,19.1581037 99.8181468,20.1850853 L99.8181468,38.2837441 C99.7115434,41.986718 97.757499,43.835918 93.9546064,43.9411142 C92.616962,43.835918 91.4830252,43.4277993 90.7649473,42.4993292 C89.6359361,41.368207 89.1226212,40.0302108 89.1226212,38.2837441 L89.9458952,36.22767 L91.2824841,35.5088885 C92.4104399,35.5074812 93.1313323,36.124233 93.2358248,37.3577367 L93.2358248,37.3577367 Z" id="path4" fill="#A9A9A9"></path>
            </g>
        </g>
    </g>
</svg>
